<svg xmlns="http://www.w3.org/2000/svg" width="222" height="70" fill="none"><path d="M50.563 41.074c6.867-3.852 15.556-1.467 19.493 5.352l-5.925 3.421c-6.899 3.983-15.722 1.57-19.633-5.37l6.065-3.403Z"/><path  d="M48.051 38.373c3.923-6.794 12.612-9.123 19.407-5.2l-3.552 6.152c-3.923 6.795-12.611 9.123-19.406 5.2l3.551-6.152Z"/><path d="M44.192 37.715c0-8.24 6.681-14.921 14.922-14.921v6.963c0 8.24-6.68 14.921-14.922 14.921v-6.963Z"/><path d="M40.671 37.999c-3.923-6.795-1.595-15.484 5.2-19.407l3.552 6.152c3.923 6.795 1.595 15.483-5.2 19.406L40.671 38Z"/><path d="M44.192 36.72c0-7.691-6.235-13.926-13.926-13.926v7.958c0 7.691 6.235 13.926 13.926 13.926V36.72Z"/><path d="M41.194 38.373c-3.923-6.794-12.612-9.123-19.407-5.2l3.552 6.152c3.923 6.795 12.611 9.123 19.406 5.2l-3.551-6.152Z"/><path d="M38.681 41.074c-6.867-3.852-15.555-1.467-19.492 5.352l5.924 3.421c6.9 3.983 15.723 1.57 19.634-5.37l-6.066-3.403ZM95.376 28.149V43.57h-3.093V33.54l-4.132 10.03H85.81l-4.153-10.03v10.03h-3.094V28.15h3.514l4.904 11.467 4.905-11.467h3.491ZM99.12 29.872c-.545 0-1.002-.17-1.37-.508a1.773 1.773 0 0 1-.53-1.304c0-.515.177-.942.53-1.281.368-.354.825-.53 1.37-.53.545 0 .994.176 1.347.53.369.339.553.766.553 1.281 0 .516-.184.95-.553 1.304-.353.339-.802.508-1.347.508Zm1.524 1.458v12.24h-3.093V31.33h3.093ZM109.599 31.154c1.459 0 2.637.463 3.535 1.391.899.914 1.348 2.195 1.348 3.845v7.18h-3.093v-6.76c0-.973-.243-1.716-.729-2.232-.486-.53-1.149-.795-1.988-.795-.855 0-1.532.265-2.033.795-.486.516-.729 1.26-.729 2.232v6.76h-3.094V31.33h3.094v1.525c.412-.53.935-.943 1.568-1.237a4.863 4.863 0 0 1 2.121-.464ZM115.744 37.406c0-1.237.243-2.334.729-3.292.501-.957 1.179-1.694 2.033-2.21.854-.515 1.805-.773 2.85-.773a5.11 5.11 0 0 1 2.276.53c.722.34 1.296.796 1.723 1.37v-5.81h3.138v16.35h-3.138v-1.812c-.383.604-.92 1.09-1.613 1.458-.692.368-1.495.552-2.408.552a5.255 5.255 0 0 1-2.828-.795c-.854-.53-1.532-1.274-2.033-2.231-.486-.973-.729-2.085-.729-3.337Zm9.633.044c0-.75-.147-1.392-.442-1.922a3.018 3.018 0 0 0-1.193-1.237 3.127 3.127 0 0 0-1.613-.442c-.574 0-1.104.14-1.59.42-.487.28-.884.692-1.194 1.237-.294.53-.441 1.164-.441 1.9 0 .737.147 1.385.441 1.945.31.545.707.964 1.194 1.259.5.294 1.031.442 1.59.442.575 0 1.112-.14 1.613-.42a3.21 3.21 0 0 0 1.193-1.237c.295-.545.442-1.194.442-1.945ZM136.242 33.871h-2.143v9.7h-3.138v-9.7h-1.392v-2.54h1.392v-.62c0-1.502.427-2.606 1.281-3.313.855-.707 2.144-1.039 3.867-.995v2.607c-.751-.014-1.274.11-1.569.376-.294.265-.441.744-.441 1.436v.508h2.143v2.541ZM148.919 31.33v12.24h-3.115v-1.546c-.398.53-.921.95-1.569 1.26a4.867 4.867 0 0 1-2.077.441c-.957 0-1.804-.199-2.541-.596-.736-.413-1.318-1.01-1.745-1.79-.413-.795-.619-1.738-.619-2.828v-7.18h3.093v6.738c0 .972.243 1.723.729 2.254.487.515 1.149.773 1.989.773.854 0 1.524-.258 2.01-.773.486-.53.73-1.282.73-2.254V31.33h3.115ZM154.18 27.22v16.35h-3.093V27.22h3.093ZM163.135 31.154c1.458 0 2.636.463 3.535 1.391.898.914 1.347 2.195 1.347 3.845v7.18h-3.093v-6.76c0-.973-.243-1.716-.729-2.232-.486-.53-1.149-.795-1.988-.795-.855 0-1.532.265-2.033.795-.486.516-.729 1.26-.729 2.232v6.76h-3.093V31.33h3.093v1.525c.412-.53.935-.943 1.568-1.237a4.867 4.867 0 0 1 2.122-.464ZM181.454 37.185c0 .442-.029.84-.088 1.193h-8.948c.074.884.383 1.576.928 2.077.545.5 1.215.751 2.01.751 1.149 0 1.967-.493 2.453-1.48h3.336c-.353 1.178-1.031 2.15-2.033 2.916-1.001.752-2.231 1.127-3.69 1.127-1.178 0-2.238-.257-3.181-.773a5.688 5.688 0 0 1-2.187-2.232c-.516-.957-.774-2.062-.774-3.314 0-1.266.258-2.378.774-3.336a5.391 5.391 0 0 1 2.165-2.21c.928-.515 1.996-.773 3.203-.773 1.164 0 2.202.25 3.116.752a5.182 5.182 0 0 1 2.143 2.143c.516.913.773 1.966.773 3.16Zm-3.204-.884c-.014-.795-.301-1.428-.861-1.9-.56-.486-1.245-.729-2.055-.729-.766 0-1.414.236-1.944.707-.516.457-.832 1.098-.95 1.922h5.81ZM187.512 43.77c-1.002 0-1.9-.177-2.696-.53-.795-.369-1.429-.863-1.9-1.481a3.77 3.77 0 0 1-.751-2.055h3.115c.059.471.288.862.685 1.171.413.31.921.464 1.525.464.589 0 1.046-.118 1.37-.354.339-.235.508-.537.508-.905 0-.398-.206-.692-.619-.884-.397-.206-1.038-.427-1.922-.663-.913-.221-1.664-.45-2.254-.685a4.007 4.007 0 0 1-1.502-1.083c-.412-.486-.619-1.141-.619-1.966 0-.677.192-1.296.575-1.856.397-.56.957-1.001 1.679-1.325.736-.324 1.598-.486 2.585-.486 1.458 0 2.622.368 3.491 1.104.869.722 1.347 1.702 1.436 2.939h-2.961c-.044-.486-.25-.87-.618-1.15-.354-.294-.832-.441-1.437-.441-.559 0-.994.103-1.303.31a.994.994 0 0 0-.442.86c0 .413.206.73.619.951.412.206 1.053.42 1.922.64.884.222 1.613.45 2.187.686a3.732 3.732 0 0 1 1.481 1.105c.427.485.648 1.134.663 1.944 0 .707-.2 1.34-.597 1.9-.383.56-.943 1.002-1.679 1.325-.722.31-1.569.464-2.541.464ZM198.668 43.77c-1.002 0-1.9-.177-2.695-.53-.796-.369-1.429-.863-1.9-1.481a3.763 3.763 0 0 1-.752-2.055h3.116c.059.471.287.862.685 1.171.412.31.92.464 1.524.464.589 0 1.046-.118 1.37-.354.339-.235.508-.537.508-.905 0-.398-.206-.692-.619-.884-.397-.206-1.038-.427-1.922-.663-.913-.221-1.664-.45-2.253-.685a4.002 4.002 0 0 1-1.503-1.083c-.412-.486-.618-1.141-.618-1.966 0-.677.191-1.296.574-1.856.398-.56.958-1.001 1.679-1.325.737-.324 1.598-.486 2.585-.486 1.458 0 2.622.368 3.491 1.104.869.722 1.348 1.702 1.436 2.939h-2.96c-.045-.486-.251-.87-.619-1.15-.353-.294-.832-.441-1.436-.441-.56 0-.994.103-1.304.31a.994.994 0 0 0-.442.86c0 .413.206.73.619.951.413.206 1.053.42 1.922.64.884.222 1.613.45 2.187.686a3.725 3.725 0 0 1 1.481 1.105c.427.485.648 1.134.663 1.944 0 .707-.199 1.34-.597 1.9-.383.56-.942 1.002-1.679 1.325-.722.31-1.569.464-2.541.464Z"/></svg>