<svg xmlns="http://www.w3.org/2000/svg" width="200" height="52" fill="none"><path fill="#fff" d="M80.756 13.97a5.906 5.906 0 0 0-3.028.815c-.906.544-1.695 1.307-2.368 2.29-.647.984-1.152 2.175-1.514 3.572-.337 1.398-.505 2.964-.505 4.698 0 1.786.168 3.377.505 4.775.362 1.397.88 2.588 1.552 3.571.673.984 1.502 1.734 2.485 2.252.984.518 2.096.776 3.339.776 1.346 0 2.536-.323 3.571-.97 1.061-.673 1.941-1.592 2.64-2.756.699-1.165 1.204-2.485 1.514-3.96l2.563 1.01c-.415 1.863-1.1 3.506-2.058 4.93a10.15 10.15 0 0 1-3.688 3.338c-1.475.803-3.235 1.204-5.28 1.204-1.993 0-3.83-.337-5.513-1.01a13.07 13.07 0 0 1-4.309-2.911c-1.216-1.269-2.161-2.77-2.834-4.504-.673-1.734-1.01-3.649-1.01-5.745 0-2.097.35-4.012 1.049-5.746.699-1.734 1.656-3.222 2.873-4.465a12.616 12.616 0 0 1 4.193-2.911 12.695 12.695 0 0 1 5.124-1.048c1.812 0 3.326.297 4.542.893 1.242.595 2.252 1.41 3.028 2.445.777 1.036 1.372 2.252 1.786 3.65l-1.786-.35.7-6.25h2.678v8.54h-3.067c-.388-1.242-.906-2.316-1.553-3.222a6.803 6.803 0 0 0-2.33-2.135c-.905-.517-2.005-.776-3.3-.776Zm26.515 13.2-.038 2.134c-1.01.104-1.916.26-2.718.466-.802.182-1.501.415-2.096.7-.596.258-1.087.569-1.475.93a3.273 3.273 0 0 0-.816 1.166c-.18.44-.272.931-.272 1.475 0 .62.104 1.139.311 1.553.233.414.557.737.971.97.414.233.893.35 1.436.35.725 0 1.359-.182 1.902-.544.57-.362 1.074-.867 1.514-1.514.44-.673.829-1.45 1.165-2.33l.078 2.485c-.363.958-.854 1.773-1.476 2.446a6.603 6.603 0 0 1-2.212 1.514c-.855.363-1.838.544-2.951.544-1.242 0-2.342-.194-3.3-.583-.957-.414-1.708-1.009-2.251-1.785-.518-.803-.777-1.76-.777-2.873 0-1.087.272-2.019.815-2.796.544-.776 1.36-1.436 2.446-1.98 1.113-.569 2.472-1.035 4.076-1.397 1.631-.388 3.52-.699 5.668-.932Zm-.543 11.956v-3.92h-.427V24.918c0-.854-.117-1.527-.349-2.02a2.201 2.201 0 0 0-1.087-1.125c-.466-.233-1.049-.35-1.747-.35-1.036 0-1.903.234-2.602.7-.672.44-1.203.97-1.591 1.591-.156-.284-.233-.556-.233-.815a1.6 1.6 0 0 1 .233-.699c.13-.207.31-.388.543-.543.26-.156.544-.272.854-.35v4.154h-4.736v-4.115c.362-.285.906-.621 1.63-1.01.751-.388 1.67-.724 2.757-1.009 1.087-.31 2.329-.466 3.727-.466 1.19 0 2.29.13 3.3.389 1.009.233 1.889.62 2.64 1.164a5.1 5.1 0 0 1 1.785 2.058c.44.828.66 1.837.66 3.028v10.21c0 .31.091.557.272.738.181.155.44.271.777.35.362.077.776.129 1.242.154l.116.04v2.135h-7.764Zm9.367 0V37.03h.039c.466 0 .88-.026 1.242-.078.363-.077.647-.207.854-.388.208-.181.311-.44.311-.776v-12.85c0-.31-.078-.544-.233-.7-.129-.18-.349-.323-.66-.426-.31-.104-.712-.207-1.203-.31l-.35-.078V19.25h7.92v4.231l.427.155v13.045c0 .077.104.142.311.194.232.052.517.09.854.116.336.026.647.04.931.04h.078v2.096h-10.521Zm23.837 0h-10.56V37.03H130.343c.336-.026.621-.065.854-.116.259-.078.388-.156.388-.233V25.46c0-.776-.09-1.41-.272-1.902-.155-.492-.427-.854-.815-1.087-.362-.233-.854-.35-1.475-.35-.699 0-1.359.182-1.98.544-.621.336-1.216.841-1.786 1.514-.543.647-1.061 1.475-1.553 2.485l-.116-3.067c.595-1.01 1.242-1.864 1.941-2.563a7.526 7.526 0 0 1 2.446-1.591 7.793 7.793 0 0 1 3.028-.583c1.294 0 2.42.246 3.377.738.984.466 1.734 1.19 2.252 2.174.544.958.815 2.174.815 3.65v10.365c0 .336.104.595.311.776.207.181.492.31.854.388.362.052.776.078 1.242.078h.078v2.096Zm17.873-17.003c0-.156-.142-.285-.427-.389a3.091 3.091 0 0 0-.97-.272 6.338 6.338 0 0 0-1.243-.116h-.077V19.25h7.57v2.096h-.039c-.336 0-.66.052-.97.155a1.74 1.74 0 0 0-.777.466c-.233.233-.427.57-.582 1.01l-5.862 16.15h-5.591l-5.978-16.5c-.13-.336-.298-.595-.505-.776a1.832 1.832 0 0 0-.776-.389 4.043 4.043 0 0 0-1.049-.116h-.038V19.25h10.831v2.096h-.078c-.44 0-.88.013-1.32.039a9.224 9.224 0 0 0-1.048.116c-.285.026-.427.09-.427.194l5.163 14.714-.737-.388 4.93-13.899Zm11.529-6.173c-.984 0-1.786-.259-2.407-.777-.621-.517-.932-1.229-.932-2.135 0-.906.311-1.617.932-2.135.621-.518 1.423-.777 2.407-.777 1.035 0 1.85.26 2.446.777.621.518.931 1.23.931 2.135 0 .906-.31 1.618-.931 2.135-.596.518-1.411.777-2.446.777Zm3.067 3.3v16.538c0 .517.233.854.698 1.01.466.154 1.049.232 1.747.232h.039v2.096h-10.831V37.03h.039c.699 0 1.281-.078 1.747-.233.466-.155.699-.492.699-1.01v-12.85c0-.465-.169-.789-.505-.97-.337-.181-.88-.336-1.631-.466l-.349-.077V19.25h8.347Zm25.665 19.877h-11.181v-2.058h.078c.414 0 .828-.013 1.242-.039.414-.052.751-.103 1.01-.155.284-.052.427-.117.427-.194l-5.125-6.6-.116-.116-5.785-7.57c-.207-.285-.414-.492-.621-.622a1.707 1.707 0 0 0-.699-.31c-.259-.078-.595-.117-1.009-.117V19.25h11.025v2.096h-.077c-.389 0-.79.013-1.204.039a7.673 7.673 0 0 0-.97.116c-.259.026-.389.078-.389.156l4.892 6.366.155.156 5.785 7.531c.258.31.491.57.698.777.233.18.492.323.777.427.285.103.634.155 1.048.155h.039v2.057Zm-22.012 0v-2.058h.039c.336 0 .647-.052.931-.155.285-.13.557-.298.816-.505a8.38 8.38 0 0 0 .854-.815l5.745-6.988 1.98 1.28-5.163 6.368c0 .155.117.297.349.427.259.13.583.233.971.31.388.052.776.078 1.165.078h.038v2.057h-7.725Zm13.393-9.59-1.824-1.436 4.853-6.017c0-.156-.117-.285-.35-.389-.233-.129-.53-.22-.893-.271a7.66 7.66 0 0 0-1.087-.078h-.116V19.25h7.57v2.096h-.039a3.17 3.17 0 0 0-1.009.155c-.285.104-.57.285-.854.544a9.32 9.32 0 0 0-.932 1.01l-5.319 6.483Z"/><g fill="#fff" clip-path="url(#a)"><path d="M26.215 21.248c-.98.028-1.939.147-2.866.348-3.84 1.098-6.659 4.621-6.659 8.788 0 5.04 4.126 9.14 9.196 9.14 5.07 0 9.196-4.1 9.196-9.14 0-4.931-3.948-8.962-8.867-9.136Z"/><path d="M44.383 7.616C39.441 2.705 32.873 0 25.887 0 18.9 0 12.33 2.705 7.39 7.616 3.725 11.26 1.282 15.797.266 20.733c3.437-6.204 10.08-10.418 17.694-10.418 11.026 0 20.014 8.833 20.184 19.754.002.105.004.21.004.315 0 6.72-5.5 12.188-12.261 12.188-6.761 0-12.261-5.468-12.261-12.189 0-.825.083-1.632.241-2.412a15.23 15.23 0 0 0-2.687 8.652c0 8.358 6.74 15.18 15.1 15.377 6.84-.1 13.255-2.792 18.102-7.611 4.94-4.911 7.662-11.441 7.662-18.387 0-6.945-2.721-13.475-7.661-18.386Z"/><path d="M30.917 19.269a17.131 17.131 0 0 0-12.957-5.906c-9.441 0-17.122 7.635-17.122 17.02 0 2.376.489 4.69 1.43 6.825a26.026 26.026 0 0 0 5.122 7.18 26.32 26.32 0 0 0 4.843 3.803 18.273 18.273 0 0 1-4.119-11.568c0-8.78 6.211-16.146 14.495-17.985a12.3 12.3 0 0 1 3.627-.438c.138-.003.277-.005.416-.005v.024c1.511.094 2.95.46 4.265 1.05Z"/></g><defs><clipPath id="a"><path fill="#fff" d="M0 0h52.309v52H0z"/></clipPath></defs></svg>