<svg xmlns="http://www.w3.org/2000/svg" width="155" height="40" fill="none"><path fill="#fff" d="M62.344 11.068c-.84 0-1.61.21-2.31.63-.7.4-1.31.98-1.83 1.74-.5.76-.89 1.68-1.17 2.76-.26 1.06-.39 2.25-.39 3.57 0 1.36.14 2.58.42 3.66.28 1.06.67 1.97 1.17 2.73.52.76 1.16 1.34 1.92 1.74.76.38 1.62.57 2.58.57 1.04 0 1.95-.25 2.73-.75.8-.5 1.47-1.19 2.01-2.07.54-.9.93-1.92 1.17-3.06l2.04.81c-.32 1.42-.85 2.69-1.59 3.81a7.844 7.844 0 0 1-2.85 2.58c-1.14.62-2.5.93-4.08.93-1.54 0-2.96-.26-4.26-.78a10.1 10.1 0 0 1-3.33-2.25c-.94-.98-1.67-2.14-2.19-3.48-.52-1.34-.78-2.82-.78-4.44 0-1.62.27-3.1.81-4.44.54-1.34 1.28-2.49 2.22-3.45a9.75 9.75 0 0 1 3.24-2.25 9.81 9.81 0 0 1 3.96-.81c1.4 0 2.57.23 3.51.69.94.46 1.7 1.1 2.28 1.92.6.8 1.07 1.74 1.41 2.82l-1.41-.21.54-4.92h2.16v6.63h-2.49c-.3-.96-.69-1.78-1.17-2.46a5.06 5.06 0 0 0-1.77-1.62c-.7-.4-1.55-.6-2.55-.6Zm20.52 10.11-.03 1.68c-.78.1-1.48.22-2.1.36-.62.14-1.16.32-1.62.54-.44.2-.81.44-1.11.72-.28.26-.5.56-.66.9-.14.34-.21.71-.21 1.11 0 .46.09.86.27 1.2.18.32.43.57.75.75.32.16.69.24 1.11.24.54 0 1.03-.14 1.47-.42.44-.28.83-.68 1.17-1.2.34-.52.63-1.12.87-1.8l.06 2.04c-.3.72-.69 1.34-1.17 1.86-.46.5-1.02.89-1.68 1.17-.66.26-1.41.39-2.25.39-.98 0-1.84-.15-2.58-.45-.74-.32-1.32-.78-1.74-1.38-.4-.62-.6-1.36-.6-2.22 0-.84.21-1.56.63-2.16.44-.6 1.08-1.11 1.92-1.53.84-.44 1.88-.8 3.12-1.08 1.26-.3 2.72-.54 4.38-.72Zm-.39 9.24v-3.03h-.33v-7.89c0-.64-.1-1.16-.3-1.56-.18-.4-.45-.68-.81-.84-.36-.18-.81-.27-1.35-.27-.82 0-1.49.18-2.01.54-.52.34-.93.75-1.23 1.23-.12-.22-.18-.42-.18-.6 0-.2.05-.38.15-.54.12-.18.27-.33.45-.45.2-.12.42-.21.66-.27v3.18h-3.69v-3.21c.3-.22.73-.48 1.29-.78.56-.3 1.26-.56 2.1-.78.84-.24 1.81-.36 2.91-.36.9 0 1.74.1 2.52.3.78.18 1.46.47 2.04.87.6.4 1.06.93 1.38 1.59.34.64.51 1.43.51 2.37v7.8c0 .24.07.43.21.57.16.12.37.21.63.27.28.06.6.1.96.12l.09.03v1.71h-6Zm7.238 0v-1.65h.03c.36 0 .68-.03.96-.09.3-.06.53-.16.69-.3.16-.14.24-.33.24-.57v-9.81c0-.26-.06-.45-.18-.57-.12-.12-.3-.22-.54-.3-.24-.1-.55-.19-.93-.27l-.27-.06v-1.71h6.12v3.27l.33.12v9.99c0 .06.09.12.27.18.18.04.39.07.63.09.26.02.5.03.72.03h.09v1.65h-8.16Zm18.42 0h-8.16v-1.65h.06c.2 0 .43-.01.69-.03.26-.02.48-.05.66-.09.2-.06.3-.12.3-.18v-8.55c0-.6-.07-1.08-.21-1.44-.12-.38-.32-.66-.6-.84-.28-.18-.66-.27-1.14-.27-.54 0-1.06.13-1.56.39-.48.26-.93.65-1.35 1.17-.42.52-.83 1.17-1.23 1.95l-.03-2.49c.44-.78.93-1.43 1.47-1.95.56-.54 1.19-.95 1.89-1.23s1.47-.42 2.31-.42c1.02 0 1.9.19 2.64.57.74.36 1.31.92 1.71 1.68.42.74.63 1.68.63 2.82v7.95c0 .24.08.43.24.57.16.14.38.24.66.3s.6.09.96.09h.06v1.65Zm13.812-13.05c-.02-.12-.14-.23-.36-.33-.2-.1-.45-.17-.75-.21-.3-.06-.62-.09-.96-.09h-.06v-1.65h5.97v1.65h-.06c-.24 0-.48.04-.72.12-.24.06-.45.19-.63.39-.18.18-.33.43-.45.75l-4.5 12.42h-4.41l-4.62-12.66c-.08-.28-.21-.49-.39-.63-.16-.14-.36-.24-.6-.3-.22-.06-.49-.09-.81-.09h-.06v-1.65h8.43v1.65h-.06c-.34 0-.68.01-1.02.03-.34.02-.62.05-.84.09-.22.02-.33.07-.33.15l3.99 11.34-.54-.39 3.78-10.59Zm8.997-4.8c-.78 0-1.41-.2-1.89-.6-.46-.4-.69-.96-.69-1.68 0-.7.23-1.24.69-1.62.48-.4 1.11-.6 1.89-.6.78 0 1.4.2 1.86.6.48.38.72.92.72 1.62 0 .72-.24 1.28-.72 1.68-.46.4-1.08.6-1.86.6Zm2.37 2.52v12.72c0 .38.18.64.54.78.36.12.8.18 1.32.18h.03v1.65h-8.34v-1.65h.03c.54 0 .98-.06 1.32-.18.36-.14.54-.4.54-.78v-9.81c0-.36-.13-.61-.39-.75s-.68-.27-1.26-.39l-.27-.06v-1.71h6.48Zm19.862 15.33h-8.7v-1.65h.06c.34 0 .67-.01.99-.03.32-.02.59-.05.81-.09.22-.04.33-.09.33-.15l-3.99-5.07-.09-.09-4.47-5.79a1.81 1.81 0 0 0-.48-.48c-.16-.12-.34-.2-.54-.24-.2-.04-.46-.06-.78-.06h-.03v-1.68h8.61v1.65h-.06c-.32 0-.64.01-.96.03-.3.02-.55.05-.75.09-.2.02-.3.06-.3.12l3.81 4.92.12.12 4.44 5.73c.2.22.38.41.54.57.18.16.38.28.6.36.22.06.49.09.81.09h.03v1.65Zm-17.07 0v-1.65h.03c.26 0 .5-.04.72-.12.24-.08.46-.2.66-.36.22-.18.43-.4.63-.66l4.44-5.31 1.59.99-3.96 4.86c0 .12.09.23.27.33.2.08.45.15.75.21.3.04.6.06.9.06h.06v1.65h-6.09Zm10.44-7.38-1.5-1.11 3.75-4.59c0-.12-.09-.22-.27-.3-.18-.1-.41-.17-.69-.21-.28-.06-.57-.09-.87-.09h-.09v-1.65h5.97v1.65h-.03c-.28 0-.54.05-.78.15-.24.08-.47.22-.69.42-.2.2-.44.46-.72.78l-4.08 4.95Z"/><g fill="#FBFBFB" clip-path="url(#a)"><path d="M20.265 16.348c-.758.02-1.499.112-2.216.267-2.968.843-5.147 3.552-5.147 6.754 0 3.875 3.19 7.027 7.109 7.027s7.108-3.152 7.108-7.027c0-3.79-3.052-6.889-6.854-7.021Z"/><path d="M34.307 5.868C30.487 2.093 25.41.014 20.01.014S9.532 2.094 5.713 5.868C2.879 8.67.991 12.158.205 15.951a15.644 15.644 0 0 1 13.678-8.007c8.523 0 15.47 6.79 15.601 15.184.002.08.003.16.003.241 0 5.167-4.251 9.37-9.477 9.37s-9.478-4.203-9.478-9.37c0-.634.065-1.254.187-1.854a11.662 11.662 0 0 0-2.077 6.651c0 6.424 5.21 11.668 11.672 11.82 5.287-.077 10.246-2.147 13.993-5.85 3.819-3.776 5.922-8.795 5.922-14.134 0-5.34-2.103-10.358-5.922-14.134Z"/><path d="M23.898 14.826a13.274 13.274 0 0 0-10.015-4.54c-7.298 0-13.236 5.87-13.236 13.083 0 1.826.379 3.604 1.106 5.246a20.008 20.008 0 0 0 3.96 5.52 20.333 20.333 0 0 0 3.743 2.923 13.998 13.998 0 0 1-3.184-8.892c0-6.75 4.8-12.412 11.204-13.825a9.556 9.556 0 0 1 2.804-.337c.107-.002.214-.004.322-.004v.019a9.5 9.5 0 0 1 3.296.807Z"/></g><defs><clipPath id="a"><path fill="#fff" d="M0 .014h40.434v39.971H0z"/></clipPath></defs></svg>